<svg xmlns="http://www.w3.org/2000/svg" xmlns:xlink="http://www.w3.org/1999/xlink" width="500" zoomAndPan="magnify" viewBox="0 0 375 374.999991" height="500" preserveAspectRatio="xMidYMid meet" version="1.0"><path fill="#cdd6e0" d="M 375 375 L 0 375 L 0 60.9375 C 0 52.34375 7.03125 45.3125 15.625 45.3125 L 359.375 45.3125 C 367.96875 45.3125 375 52.34375 375 60.9375 Z M 375 375 " fill-opacity="1" fill-rule="nonzero"/><path fill="#f2f2f2" d="M 285.9375 375 L 89.0625 375 L 89.0625 15.625 C 89.0625 7.03125 96.09375 0 104.6875 0 L 270.3125 0 C 278.90625 0 285.9375 7.03125 285.9375 15.625 Z M 285.9375 375 " fill-opacity="1" fill-rule="nonzero"/><path fill="#ffd15c" d="M 136.71875 273.4375 L 187.5 273.4375 L 187.5 375 L 136.71875 375 Z M 136.71875 273.4375 " fill-opacity="1" fill-rule="nonzero"/><path fill="#ffd15c" d="M 187.5 273.4375 L 238.28125 273.4375 L 238.28125 375 L 187.5 375 Z M 187.5 273.4375 " fill-opacity="1" fill-rule="nonzero"/><path fill="#cdd6e0" d="M 114.0625 172.65625 L 260.9375 172.65625 L 260.9375 196.09375 L 114.0625 196.09375 Z M 114.0625 172.65625 " fill-opacity="1" fill-rule="nonzero"/><path fill="#cdd6e0" d="M 114.0625 220.3125 L 260.9375 220.3125 L 260.9375 243.75 L 114.0625 243.75 Z M 114.0625 220.3125 " fill-opacity="1" fill-rule="nonzero"/><path fill="#f2f2f2" d="M 310.15625 103.90625 L 350 103.90625 L 350 143.75 L 310.15625 143.75 Z M 310.15625 103.90625 " fill-opacity="1" fill-rule="nonzero"/><path fill="#f2f2f2" d="M 310.15625 189.84375 L 350 189.84375 L 350 229.6875 L 310.15625 229.6875 Z M 310.15625 189.84375 " fill-opacity="1" fill-rule="nonzero"/><path fill="#f2f2f2" d="M 310.15625 276.5625 L 350 276.5625 L 350 316.40625 L 310.15625 316.40625 Z M 310.15625 276.5625 " fill-opacity="1" fill-rule="nonzero"/><path fill="#f2f2f2" d="M 24.21875 103.90625 L 64.0625 103.90625 L 64.0625 143.75 L 24.21875 143.75 Z M 24.21875 103.90625 " fill-opacity="1" fill-rule="nonzero"/><path fill="#f2f2f2" d="M 24.21875 189.84375 L 64.0625 189.84375 L 64.0625 229.6875 L 24.21875 229.6875 Z M 24.21875 189.84375 " fill-opacity="1" fill-rule="nonzero"/><path fill="#f2f2f2" d="M 24.21875 276.5625 L 64.0625 276.5625 L 64.0625 316.40625 L 24.21875 316.40625 Z M 24.21875 276.5625 " fill-opacity="1" fill-rule="nonzero"/><path fill="#ff7058" d="M 134.375 118.75 C 137.5 117.96875 139.84375 115.625 139.84375 110.9375 C 139.84375 106.25 136.71875 102.34375 130.46875 102.34375 L 113.28125 102.34375 L 113.28125 135.15625 L 131.25 135.15625 C 137.5 135.15625 140.625 131.25 140.625 126.5625 C 140.625 122.65625 138.28125 119.53125 134.375 118.75 Z M 120.3125 109.375 L 128.90625 109.375 C 131.25 109.375 132.8125 110.9375 132.8125 112.5 C 132.8125 114.84375 131.25 115.625 128.90625 115.625 L 120.3125 115.625 Z M 129.6875 129.6875 L 121.09375 129.6875 L 121.09375 122.65625 L 129.6875 122.65625 C 132.03125 122.65625 133.59375 124.21875 133.59375 126.5625 C 133.59375 128.125 132.03125 129.6875 129.6875 129.6875 Z M 129.6875 129.6875 " fill-opacity="1" fill-rule="nonzero"/><path fill="#ff7058" d="M 160.9375 103.125 L 148.4375 135.9375 L 156.25 135.9375 L 158.59375 130.46875 L 172.65625 130.46875 L 175 135.9375 L 182.8125 135.9375 L 170.3125 103.125 Z M 160.9375 124.21875 L 165.625 110.15625 L 170.3125 124.21875 Z M 160.9375 124.21875 " fill-opacity="1" fill-rule="nonzero"/><path fill="#ff7058" d="M 214.0625 123.4375 L 199.21875 103.125 L 192.1875 103.125 L 192.1875 135.9375 L 198.4375 135.9375 L 198.4375 114.84375 L 214.0625 135.9375 L 221.09375 135.9375 L 221.09375 103.125 L 214.0625 103.125 Z M 214.0625 123.4375 " fill-opacity="1" fill-rule="nonzero"/><path fill="#ff7058" d="M 247.65625 118.75 L 260.15625 103.125 L 252.34375 103.125 L 240.625 117.96875 L 240.625 103.125 L 233.59375 103.125 L 233.59375 135.9375 L 240.625 135.9375 L 240.625 125.78125 L 242.96875 122.65625 L 253.125 135.9375 L 261.71875 135.9375 Z M 247.65625 118.75 " fill-opacity="1" fill-rule="nonzero"/></svg>